<?xml version="1.0" encoding="utf-8"?>
<!-- Generator: Adobe Illustrator 24.2.3, SVG Export Plug-In . SVG Version: 6.00 Build 0)  -->
<svg version="1.1" id="レイヤー_1" xmlns="http://www.w3.org/2000/svg" xmlns:xlink="http://www.w3.org/1999/xlink" x="0px"
	 y="0px" viewBox="0 0 128 64" style="enable-background:new 0 0 128 64;" xml:space="preserve">
<style type="text/css">
	.st0{fill:none;stroke:#000000;stroke-width:5;stroke-miterlimit:10;}
</style>
<path class="st0" d="M127,8c1.4-2.2,1-5.2-0.8-6.9c-2.1-1.7-4.8-1.2-6.4,1C119.5,2.4,94.2,34.5,64,34.5C34.8,34.5,8.3,2,8,1.9
	C6.5,0,3.7-0.2,1.8,1.3c0,0-0.1,0.1-0.1,0.1c-1.8,1.8-2.1,4.7-0.5,6.8C1.7,9,7.2,15.6,15.8,23L4.2,36c-1.7,2-1.6,4.9,0.2,6.8
	c0.5,1,1.6,1.5,2.7,1.5s2.3-0.5,3.2-1.5l12.6-14c6.4,4.8,13.4,8.7,20.8,11.6l-4.8,17.4c-0.7,2.7,0.7,5.4,3.2,6.1h1.4
	c2,0,3.8-1.4,4.3-3.7l4.8-17.4c7.5,1.5,15.3,1.5,22.8,0L80.2,60c0.5,2.1,2.3,3.6,4.4,3.7c0.4,0,0.9,0,1.1-0.3c2.5-0.7,4-3.4,3.2-6.1
	l-4.8-17.2c7.5-2.9,14.5-6.7,20.9-11.5l12.3,13.7c1,1,2.1,1.5,3.2,1.5s2.3-0.5,3.2-1.5c1.9-2,1.9-4.9,0.3-6.8l-11.7-13
	C121.6,15,127.1,8,127,8L127,8z"/>
</svg>
