<?xml version="1.0" encoding="utf-8"?>
<!-- Generator: Adobe Illustrator 24.2.3, SVG Export Plug-In . SVG Version: 6.00 Build 0)  -->
<svg version="1.1" id="レイヤー_1" xmlns="http://www.w3.org/2000/svg" xmlns:xlink="http://www.w3.org/1999/xlink" x="0px"
	 y="0px" viewBox="0 0 128 128" style="enable-background:new 0 0 128 128;" xml:space="preserve">
<style type="text/css">
	.st0{fill:none;stroke:#000000;stroke-width:5;stroke-miterlimit:10;}
</style>
<path class="st0" d="M64,16c5.8,0,11.5,0.9,16.9,2.6c5.5,1.8,10.3,4.1,14.4,6.9s8,5.9,11.7,9.4s6.7,6.8,9.2,10.2s4.6,6.5,6.4,9.3
	c1.8,2.8,3.2,5.1,4,6.9L128,64l-0.8,1.7c-0.3,0.7-1.1,2.2-2.3,4.3s-2.6,4.3-4,6.4c-1.4,2.1-3.3,4.6-5.5,7.5
	c-2.3,2.9-4.7,5.6-7.1,8.1c-2.5,2.5-5.4,5-8.7,7.5c-3.3,2.5-6.8,4.7-10.3,6.4c-3.5,1.8-7.5,3.2-11.9,4.3S68.6,112,64,112
	c-5.8,0-11.5-0.9-16.9-2.7c-5.5-1.8-10.3-4.1-14.4-6.8s-8-5.9-11.7-9.3c-3.6-3.4-6.7-6.8-9.2-10.2c-2.5-3.4-4.6-6.5-6.4-9.3
	s-3.1-5.1-4-6.9L0,64.2l0.8-1.7c0.3-0.7,1.1-2.2,2.3-4.3s2.6-4.4,4-6.5c1.4-2.1,3.3-4.6,5.5-7.5s4.7-5.6,7.1-8.1s5.4-5,8.7-7.5
	s6.8-4.7,10.3-6.5s7.5-3.2,11.9-4.4S59.4,16,64,16z M64,26.7c-3.9,0-7.7,0.5-11.5,1.5c-3.7,1-7.1,2.4-10.1,4s-6,3.6-8.8,5.9
	c-2.9,2.3-5.4,4.6-7.5,6.8C24,47.1,22,49.5,20,52.1c-2,2.6-3.5,4.8-4.7,6.6c-1.2,1.8-2.3,3.7-3.3,5.5c1,1.8,2.1,3.6,3.3,5.4
	s2.7,4,4.7,6.6s4,4.9,6.1,7.1c2.1,2.2,4.6,4.4,7.5,6.7c2.9,2.3,5.8,4.2,8.8,5.8s6.4,2.9,10.2,3.9s7.6,1.5,11.4,1.5s7.7-0.5,11.4-1.6
	c3.7-1,7.1-2.3,10.2-3.9c3-1.6,6-3.6,8.8-5.9c2.9-2.3,5.3-4.6,7.4-6.8C104,81,106,78.6,108,76c2-2.6,3.5-4.8,4.7-6.6
	c1.2-1.8,2.3-3.6,3.3-5.4c-1-1.8-2.1-3.6-3.3-5.5c-1.2-1.8-2.7-4-4.7-6.6c-2-2.6-4-5-6.1-7.2s-4.6-4.5-7.4-6.8
	c-2.8-2.3-5.8-4.3-8.8-5.9c-3-1.6-6.4-2.9-10.2-4C71.7,27.2,67.9,26.7,64,26.7L64,26.7z M64,42.7c5.9,0,10.9,2.1,15.1,6.2
	c4.2,4.2,6.2,9.2,6.2,15.1s-2.1,10.9-6.2,15.1c-4.2,4.2-9.2,6.2-15.1,6.2s-10.9-2.1-15.1-6.2c-4.2-4.2-6.2-9.2-6.2-15.1
	s2.1-10.9,6.2-15.1S58.1,42.7,64,42.7z M64,53.3c-2.9,0-5.5,1-7.5,3.1c-2.1,2.1-3.1,4.6-3.1,7.5c0,2.9,1,5.5,3.1,7.5
	c2.1,2.1,4.6,3.1,7.5,3.1c2.9,0,5.5-1,7.5-3.1c2.1-2.1,3.1-4.6,3.1-7.5c0-2.9-1-5.5-3.1-7.5C69.5,54.4,66.9,53.3,64,53.3z"/>
</svg>
