<?xml version="1.0" encoding="utf-8"?>
<!-- Generator: Adobe Illustrator 24.2.3, SVG Export Plug-In . SVG Version: 6.00 Build 0)  -->
<svg version="1.1" id="レイヤー_1" xmlns="http://www.w3.org/2000/svg" xmlns:xlink="http://www.w3.org/1999/xlink" x="0px"
	 y="0px" viewBox="0 0 128 128" style="enable-background:new 0 0 128 128;" xml:space="preserve">
<style type="text/css">
	.st0{fill:none;stroke:#000000;stroke-width:6;stroke-miterlimit:10;}
</style>
<path class="st0" d="M108.8,44.3H89.6V39c0-9-3.3-24.2-25.6-24.2c-23.1,0-25.6,16.9-25.6,24.2v5.3H19.2V39C19.2,15.3,36.8,0,64,0
	s44.8,15.3,44.8,39V44.3z M76.8,83.7c0-5.5-5.8-9.9-12.8-9.9s-12.8,4.4-12.8,9.9c0,3.7,2.6,6.8,6.4,8.5v11.2c0,2.7,2.9,5,6.4,5
	c3.5,0,6.4-2.3,6.4-5V92.2C74.2,90.5,76.8,87.4,76.8,83.7z M128,64v49.2c0,8.2-8.6,14.8-19.2,14.8H19.2C8.7,128,0,121.4,0,113.2V64
	c0-8.2,8.6-14.8,19.2-14.8h89.6C119.4,49.2,128,55.8,128,64z"/>
</svg>
